<mxfile host="Electron" modified="2024-03-01T15:16:18.654Z" agent="Mozilla/5.0 (Windows NT 10.0; Win64; x64) AppleWebKit/537.36 (KHTML, like Gecko) draw.io/22.1.2 Chrome/114.0.5735.289 Electron/25.9.4 Safari/537.36" etag="M_Zk3ZQmENUOFctMNOE9" version="22.1.2" type="device">
  <diagram name="PÃ¡gina-1" id="ObyIjT1T63DXbpHgQO0g">
    <mxGraphModel dx="880" dy="532" grid="1" gridSize="10" guides="1" tooltips="1" connect="1" arrows="1" fold="1" page="1" pageScale="1" pageWidth="827" pageHeight="1169" math="0" shadow="0">
      <root>
        <mxCell id="0" />
        <mxCell id="1" parent="0" />
        <mxCell id="miRwmCpVNUJk7XLlrfK2-1" value="inicio" style="rounded=1;whiteSpace=wrap;html=1;fillColor=#ffe6cc;strokeColor=#d79b00;" vertex="1" parent="1">
          <mxGeometry x="340" y="40" width="120" height="60" as="geometry" />
        </mxCell>
        <mxCell id="miRwmCpVNUJk7XLlrfK2-5" style="edgeStyle=orthogonalEdgeStyle;rounded=0;orthogonalLoop=1;jettySize=auto;html=1;entryX=0.5;entryY=0;entryDx=0;entryDy=0;" edge="1" parent="1" source="miRwmCpVNUJk7XLlrfK2-2" target="miRwmCpVNUJk7XLlrfK2-4">
          <mxGeometry relative="1" as="geometry" />
        </mxCell>
        <mxCell id="miRwmCpVNUJk7XLlrfK2-2" value="larguraP&lt;br&gt;comprimentoP" style="shape=card;whiteSpace=wrap;html=1;fillColor=#ffe6cc;strokeColor=#d79b00;" vertex="1" parent="1">
          <mxGeometry x="335" y="150" width="130" height="70" as="geometry" />
        </mxCell>
        <mxCell id="miRwmCpVNUJk7XLlrfK2-3" style="edgeStyle=orthogonalEdgeStyle;rounded=0;orthogonalLoop=1;jettySize=auto;html=1;entryX=0.5;entryY=0;entryDx=0;entryDy=0;entryPerimeter=0;" edge="1" parent="1" source="miRwmCpVNUJk7XLlrfK2-1" target="miRwmCpVNUJk7XLlrfK2-2">
          <mxGeometry relative="1" as="geometry" />
        </mxCell>
        <mxCell id="miRwmCpVNUJk7XLlrfK2-7" style="edgeStyle=orthogonalEdgeStyle;rounded=0;orthogonalLoop=1;jettySize=auto;html=1;entryX=0.5;entryY=0;entryDx=0;entryDy=0;" edge="1" parent="1" source="miRwmCpVNUJk7XLlrfK2-4" target="miRwmCpVNUJk7XLlrfK2-6">
          <mxGeometry relative="1" as="geometry" />
        </mxCell>
        <mxCell id="miRwmCpVNUJk7XLlrfK2-4" value="larguraP += 2&lt;br&gt;comprimentoP += 2&amp;nbsp;" style="rounded=0;whiteSpace=wrap;html=1;fillColor=#ffe6cc;strokeColor=#d79b00;" vertex="1" parent="1">
          <mxGeometry x="340" y="270" width="120" height="60" as="geometry" />
        </mxCell>
        <mxCell id="miRwmCpVNUJk7XLlrfK2-9" style="edgeStyle=orthogonalEdgeStyle;rounded=0;orthogonalLoop=1;jettySize=auto;html=1;entryX=0.5;entryY=0;entryDx=0;entryDy=0;" edge="1" parent="1" source="miRwmCpVNUJk7XLlrfK2-6" target="miRwmCpVNUJk7XLlrfK2-8">
          <mxGeometry relative="1" as="geometry" />
        </mxCell>
        <mxCell id="miRwmCpVNUJk7XLlrfK2-12" style="edgeStyle=orthogonalEdgeStyle;rounded=0;orthogonalLoop=1;jettySize=auto;html=1;entryX=0.5;entryY=0;entryDx=0;entryDy=0;" edge="1" parent="1" source="miRwmCpVNUJk7XLlrfK2-6" target="miRwmCpVNUJk7XLlrfK2-11">
          <mxGeometry relative="1" as="geometry" />
        </mxCell>
        <mxCell id="miRwmCpVNUJk7XLlrfK2-6" value="larguraP &amp;gt;= largura&lt;br&gt;&amp;amp;&amp;amp;&lt;br&gt;tamanhoP &amp;gt;= tamanho" style="rhombus;whiteSpace=wrap;html=1;fillColor=#ffe6cc;strokeColor=#d79b00;" vertex="1" parent="1">
          <mxGeometry x="315" y="380" width="170" height="170" as="geometry" />
        </mxCell>
        <mxCell id="miRwmCpVNUJk7XLlrfK2-18" style="edgeStyle=orthogonalEdgeStyle;rounded=0;orthogonalLoop=1;jettySize=auto;html=1;entryX=0;entryY=0.5;entryDx=0;entryDy=0;" edge="1" parent="1" source="miRwmCpVNUJk7XLlrfK2-8" target="miRwmCpVNUJk7XLlrfK2-14">
          <mxGeometry relative="1" as="geometry" />
        </mxCell>
        <mxCell id="miRwmCpVNUJk7XLlrfK2-8" value="Exibe imagem" style="shape=document;whiteSpace=wrap;html=1;boundedLbl=1;fillColor=#d5e8d4;strokeColor=#82b366;" vertex="1" parent="1">
          <mxGeometry x="160" y="520" width="120" height="80" as="geometry" />
        </mxCell>
        <mxCell id="miRwmCpVNUJk7XLlrfK2-10" value="V" style="text;html=1;align=center;verticalAlign=middle;resizable=0;points=[];autosize=1;strokeColor=none;fillColor=none;" vertex="1" parent="1">
          <mxGeometry x="220" y="430" width="30" height="30" as="geometry" />
        </mxCell>
        <mxCell id="miRwmCpVNUJk7XLlrfK2-19" style="edgeStyle=orthogonalEdgeStyle;rounded=0;orthogonalLoop=1;jettySize=auto;html=1;entryX=1;entryY=0.5;entryDx=0;entryDy=0;" edge="1" parent="1" source="miRwmCpVNUJk7XLlrfK2-11" target="miRwmCpVNUJk7XLlrfK2-14">
          <mxGeometry relative="1" as="geometry" />
        </mxCell>
        <mxCell id="miRwmCpVNUJk7XLlrfK2-11" value="&quot;Sem envelope&quot;" style="shape=document;whiteSpace=wrap;html=1;boundedLbl=1;fillColor=#f8cecc;strokeColor=#b85450;" vertex="1" parent="1">
          <mxGeometry x="520" y="520" width="120" height="80" as="geometry" />
        </mxCell>
        <mxCell id="miRwmCpVNUJk7XLlrfK2-13" value="F" style="text;html=1;align=center;verticalAlign=middle;resizable=0;points=[];autosize=1;strokeColor=none;fillColor=none;" vertex="1" parent="1">
          <mxGeometry x="550" y="430" width="30" height="30" as="geometry" />
        </mxCell>
        <mxCell id="miRwmCpVNUJk7XLlrfK2-14" value="Fim" style="rounded=1;whiteSpace=wrap;html=1;fillColor=#ffe6cc;strokeColor=#d79b00;" vertex="1" parent="1">
          <mxGeometry x="340" y="630" width="120" height="60" as="geometry" />
        </mxCell>
      </root>
    </mxGraphModel>
  </diagram>
</mxfile>
